<?xml version="1.0" encoding="UTF-8" standalone="no"?>
<svg
   id="svg13"
   width="52.676483"
   height="47.28841"
   version="1.1"
   viewBox="0 0 17.558828 15.762803"
   xmlns="http://www.w3.org/2000/svg"
   xmlns:svg="http://www.w3.org/2000/svg">
  <defs
     id="defs1" />
  <path
     id="rect1"
     style="display:inline;fill:#d2434d;fill-opacity:1;fill-rule:evenodd;stroke-width:1.00157;paint-order:stroke markers fill"
     transform="matrix(0.52766129,-0.14099849,0.12507633,0.46807548,2.3193888,3.1133435)"
     d="M -3.7409124,-2.7619472 20.450611,-0.49102828 22.742377,25.897526 H -3.7409124 Z" />
  <g
     id="logo"
     fill="#ad001e"
     transform="matrix(0.62247623,0,0,0.62247623,-1.1070936,-1.8447042)"
     style="fill:#ffffff;fill-opacity:1">
    <path
       id="circle"
       d="M 11.85,4.242 A 12.5,12.5 0 0 0 3.5,16 12.5,12.5 0 0 0 10.588,27.251 V 16.296 H 5.282 v -5.705 h 4.101 c 0.525,0.001 0.965,-0.34 1.093,-0.85 z m 10.805,1.181 -0.63,2.516 h 3.524 A 12.5,12.5 0 0 0 22.655,5.423 Z m -4.109,5.806 -0.15,0.596 c -0.118,0.49 -0.414,0.893 -0.777,1.21 v 0.21 h 0.927 z m -6.632,1.541 c -0.386,0.296 -0.905,0.327 -1.375,0.474 h 1.375 z m 9.684,11.485 v 2.896 a 12.5,12.5 0 0 0 3.78,-2.896 z"
       transform="matrix(0.753907,0,0,0.753907,1.867,3.865)"
       style="fill:#ffffff;fill-opacity:1" />
    <path
       id="left"
       d="m 12,1999 h 1 v 10 h -2 v -10 H 7 v -2 h 1.94 a 2,2 0 0 0 1.94,-1.51 L 12,1991 h 2 l -1.38,5.51 A 0.64,0.64 0 0 1 12,1997 Z"
       transform="translate(0,-1984)"
       style="fill:#ffffff;fill-opacity:1" />
    <path
       id="right"
       d="m 17,1997 v 2 h 8 v 2 h -8 v 2 h 8 v 2 h -8 v 4 h -2 v -10 h -1 v -2 a 0.64,0.64 0 0 0 0.62,-0.49 L 16,1991 h 2 l -1,4 h 8 v 2 z"
       transform="translate(0,-1984)"
       style="fill:#ffffff;fill-opacity:1" />
  </g>
</svg>
