<svg xmlns="http://www.w3.org/2000/svg" id="svg13" width="20.494" height="18" version="1.1">
  <g id="logo" fill="#ad001e" transform="translate(-4.506 -7)">
    <path id="circle" d="M11.85 4.242A12.5 12.5 0 0 0 3.5 16a12.5 12.5 0 0 0 7.088 11.251V16.296H5.282v-5.705h4.101c.525.001.965-.34 1.093-.85zm10.805 1.181-.63 2.516h3.524a12.5 12.5 0 0 0-2.894-2.516Zm-4.109 5.806-.15.596c-.118.49-.414.893-.777 1.21v.21h.927zm-6.632 1.541c-.386.296-.905.327-1.375.474h1.375zm9.684 11.485v2.896a12.5 12.5 0 0 0 3.78-2.896z" transform="translate(1.867 3.865) scale(.753907)"/>
    <path id="left" d="M12 1999h1v10h-2v-10H7v-2h1.94a2 2 0 0 0 1.94-1.51L12 1991h2l-1.38 5.51a.64.64 0 0 1-.62.49z" transform="translate(0 -1984)"/>
    <path id="right" d="M17 1997v2h8v2h-8v2h8v2h-8v4h-2v-10h-1v-2a.64.64 0 0 0 .62-.49L16 1991h2l-1 4h8v2z" transform="translate(0 -1984)"/>
  </g>
</svg>
